####
#
# OBJ File Generated by Meshlab
#
####
# Object walls.obj
#
# Vertices: 12
# Faces: 6
#
####
vn 0.000000 -1.570796 0.000000
v 1.000000 1.590000 -1.040000 0.752941 0.752941 0.752941
vn 0.000000 -1.570796 0.000000
v 1.000000 1.590000 0.990000 0.752941 0.752941 0.752941
vn 0.000000 -1.570796 0.000000
v -1.020000 1.590000 0.990000 0.752941 0.752941 0.752941
vn 0.000000 -1.570796 0.000000
v -1.020000 1.590000 -1.040000 0.752941 0.752941 0.752941
vn 0.000000 1.570796 0.000000
v 1.000000 0.000000 -1.040000 0.752941 0.752941 0.752941
vn 0.000000 1.580648 0.000000
v -0.990000 0.000000 -1.040000 0.752941 0.752941 0.752941
vn 0.000000 1.560944 0.000000
v -1.010000 -0.000000 0.990000 0.752941 0.752941 0.752941
vn 0.000000 1.570796 0.000000
v 1.000000 -0.000000 0.990000 0.752941 0.752941 0.752941
vn 0.000000 0.000000 1.570796
v 1.000000 1.590000 -1.040000 0.752941 0.752941 0.752941
vn 0.000000 0.000000 1.551931
v -1.020000 1.590000 -1.040000 0.752941 0.752941 0.752941
vn 0.000000 0.000000 1.589662
v -0.990000 0.000000 -1.040000 0.752941 0.752941 0.752941
vn 0.000000 0.000000 1.570796
v 1.000000 0.000000 -1.040000 0.752941 0.752941 0.752941
# 12 vertices, 0 vertices normals

f 1//1 2//2 3//3
f 4//4 1//1 3//3
f 5//5 6//6 7//7
f 8//8 5//5 7//7
f 9//9 10//10 11//11
f 12//12 9//9 11//11
# 6 faces, 0 coords texture

# End of File
